<?xml version="1.0" encoding="UTF-8"?>
<svg width="48px" height="48px" viewBox="0 0 48 48" version="1.1" xmlns="http://www.w3.org/2000/svg" xmlns:xlink="http://www.w3.org/1999/xlink">
    <!-- Generator: Sketch 54.1 (76490) - https://sketchapp.com -->
    <title>Icon / Close</title>
    <desc>Created with Sketch.</desc>
    <defs>
        <path d="M12.03273,9.79966233 L21.3930526,0.439339828 C21.978839,-0.146446609 22.9285865,-0.146446609 23.5143729,0.439339828 L23.6261203,0.551087201 C24.2119067,1.13687364 24.2119067,2.08662111 23.6261203,2.67240754 L14.2657978,12.03273 L23.6261203,21.3930526 C24.2119067,21.978839 24.2119067,22.9285865 23.6261203,23.5143729 L23.5143729,23.6261203 C22.9285865,24.2119067 21.978839,24.2119067 21.3930526,23.6261203 L12.03273,14.2657978 L2.67240754,23.6261203 C2.08662111,24.2119067 1.13687364,24.2119067 0.551087201,23.6261203 L0.439339828,23.5143729 C-0.146446609,22.9285865 -0.146446609,21.978839 0.439339828,21.3930526 L9.79966233,12.03273 L0.439339828,2.67240754 C-0.146446609,2.08662111 -0.146446609,1.13687364 0.439339828,0.551087201 L0.551087201,0.439339828 C1.13687364,-0.146446609 2.08662111,-0.146446609 2.67240754,0.439339828 L12.03273,9.79966233 Z" id="path-1"></path>
    </defs>
    <g id="Icon-/-Close" stroke="none" stroke-width="1" fill="white" fill-rule="evenodd">
        <g id="Color-/-Blue" transform="translate(12.000000, 12.000000)">
            <mask id="mask-2" fill="white">
                <use xlink:href="#path-1"></use>
            </mask>
            <use id="Mask" fill="white" xlink:href="#path-1"></use>
        </g>
    </g>
</svg>