<svg id="Layer_1" height="512" viewBox="0 0 128 128" width="512" xmlns="http://www.w3.org/2000/svg" data-name="Layer 1"><path d="m94.962 121.5h-79.616v-37.5a20 20 0 0 1 20-20h39.616a20 20 0 0 1 20 20z" fill="#4e8ed5"/><circle cx="55.154" cy="39.25" fill="#f2f2f2" r="32.75"/><path d="m21.346 113.25a1.75 1.75 0 0 1 -1.75-1.75v-19.062a1.75 1.75 0 0 1 3.5 0v19.062a1.75 1.75 0 0 1 -1.75 1.75z" fill="#12304c"/><circle cx="92.75" cy="85.127" fill="#fb4a59" r="19.904"/><path d="m101.942 90.077-4.949-4.95 4.949-4.95-4.242-4.242-4.95 4.95-4.95-4.95-4.242 4.242 4.949 4.95-4.949 4.95 4.242 4.243 4.95-4.95 4.95 4.95z" fill="#f2f2f2"/><g fill="#12304c"><path d="m86.154 39.25a31.443 31.443 0 0 1 -.348 4.662 1.75 1.75 0 0 0 1.47 1.991 1.781 1.781 0 0 0 .263.02 1.75 1.75 0 0 0 1.729-1.489 34.9 34.9 0 0 0 .387-5.183 1.75 1.75 0 0 0 -3.5 0z"/><path d="m108.062 69.816a21.664 21.664 0 0 0 -22.828-4.971 21.413 21.413 0 0 0 -4.934-1.929 34.652 34.652 0 0 0 6.883-10.809 1.75 1.75 0 0 0 -3.248-1.3 31.012 31.012 0 0 1 -8.476 11.892c-.045.035-.089.072-.131.111a31 31 0 1 1 9.856-31.3 1.75 1.75 0 0 0 3.39-.871 34.5 34.5 0 1 0 -58.485 32.281 21.838 21.838 0 0 0 -16.489 21.08v37.5a1.75 1.75 0 0 0 1.75 1.75h17.65a1.75 1.75 0 0 0 0-3.5h-15.9v-35.75a18.3 18.3 0 0 1 16.165-18.1 34.5 34.5 0 0 0 43.835-.012 17.7 17.7 0 0 1 4.075.953 21.637 21.637 0 0 0 11.572 39.93c.154 0 .306-.019.46-.022v13h-50.582a1.75 1.75 0 1 0 0 3.5h52.335a1.75 1.75 0 0 0 1.75-1.75v-15.099a21.521 21.521 0 0 0 11.352-5.962 21.907 21.907 0 0 0 1.915-2.187 1.75 1.75 0 1 0 -2.781-2.125 18.487 18.487 0 0 1 -1.608 1.837 18.149 18.149 0 1 1 4.982-9.357 1.75 1.75 0 0 0 3.436.667 21.642 21.642 0 0 0 -5.944-19.457z"/><path d="m103.18 78.94-4.243-4.24a1.8 1.8 0 0 0 -2.475 0l-3.712 3.71-3.712-3.71a1.749 1.749 0 0 0 -2.475 0l-4.243 4.24a1.749 1.749 0 0 0 0 2.475l3.712 3.712-3.712 3.713a1.749 1.749 0 0 0 0 2.475l4.243 4.242a1.749 1.749 0 0 0 2.475 0l3.712-3.712 3.712 3.712a1.749 1.749 0 0 0 2.475 0l4.243-4.242a1.749 1.749 0 0 0 0-2.475l-3.712-3.713 3.712-3.712a1.749 1.749 0 0 0 0-2.475zm-7.424 4.95a1.749 1.749 0 0 0 0 2.475l3.712 3.713-1.768 1.767-3.712-3.712a1.749 1.749 0 0 0 -2.475 0l-3.713 3.712-1.768-1.768 3.712-3.713a1.749 1.749 0 0 0 0-2.475l-3.712-3.712 1.768-1.767 3.712 3.712a1.8 1.8 0 0 0 2.475 0l3.713-3.712 1.768 1.768z"/></g></svg>